<svg xmlns="http://www.w3.org/2000/svg" width="47.99" height="54.577" viewBox="0 0 47.99 54.577">
  <g id="Group_30" data-name="Group 30" transform="translate(168 -1174)">
    <g id="Group_29" data-name="Group 29" transform="translate(-168 1174)">
      <g id="Group_28" data-name="Group 28" transform="translate(0 0)">
        <g id="_016---Bungie-Jumping" data-name="016---Bungie-Jumping">
          <path id="Shape" d="M.941,0A.941.941,0,0,0,0,.941V23.054a3.293,3.293,0,0,0,3.293,3.293H15.526a3.287,3.287,0,0,0,3.287-3.094,3.392,3.392,0,0,0-3.437-3.493H8a1.4,1.4,0,0,1-1-.411,1.434,1.434,0,0,1,1.15-2.412h7.378a3.287,3.287,0,0,0,3.287-3.094,3.392,3.392,0,0,0-3.437-3.493H13.644a1.375,1.375,0,0,1-1.035-2.31,1.636,1.636,0,0,1,1.186-.513H24.465V18.82h4.7V7.528h1.882V18.82h4.7V7.528H36.7a.941.941,0,1,0,0-1.882h-.941V4.234a2.352,2.352,0,1,0-4.7,0V5.646H29.17V4.234a2.352,2.352,0,1,0-4.7,0V5.646H13.795a3.315,3.315,0,0,0-2.482,5.624c1.158,1.159,2.4.963,4.063.963a1.52,1.52,0,0,1,1.562,1.5,1.406,1.406,0,0,1-1.411,1.324H8.148a3.526,3.526,0,0,0-2.553,1.1A3.259,3.259,0,0,0,8,21.642h7.377a1.52,1.52,0,0,1,1.562,1.5,1.406,1.406,0,0,1-1.411,1.324H3.293a1.411,1.411,0,0,1-1.411-1.411V.941A.941.941,0,0,0,.941,0Z" transform="translate(0 0)" fill="#fff"/>
          <path id="Shape-2" data-name="Shape" d="M37.292,22H26v1.882H37.292Z" transform="translate(-1.535 -1.299)" fill="#fff"/>
          <path id="Shape-3" data-name="Shape" d="M35.528,53.646V51.764a3.7,3.7,0,0,0-1.671-3.117A3.754,3.754,0,0,0,28,51.764v1.882a3.764,3.764,0,0,0,7.528,0Z" transform="translate(-1.653 -2.833)" fill="#fff"/>
          <path id="Shape-4" data-name="Shape" d="M36.524,36.285V26H25.233V36.285a2.811,2.811,0,0,1-.831,2L13.552,49.136a1.882,1.882,0,0,0-.068,2.593,1.788,1.788,0,0,0,1.294.558,2.164,2.164,0,0,0,1.565-.624l7.838-7.838a2.823,2.823,0,0,1,4.741,1.34,5.762,5.762,0,0,1,3.913,0,2.823,2.823,0,0,1,4.741-1.34l7.838,7.838a2.164,2.164,0,0,0,1.565.624,1.788,1.788,0,0,0,1.3-.565,1.882,1.882,0,0,0-.074-2.586L37.355,38.287a2.811,2.811,0,0,1-.831-2Z" transform="translate(-0.767 -1.535)" fill="#fff"/>
        </g>
      </g>
    </g>
  </g>
</svg>
