<svg xmlns="http://www.w3.org/2000/svg" width="47.978" height="47.98" viewBox="0 0 47.978 47.98">
  <g id="Group_34" data-name="Group 34" transform="translate(146 -756)">
    <g id="_099---Hiking" data-name="099---Hiking" transform="translate(-146 756)">
      <circle id="Oval" cx="4" cy="4" r="4" transform="translate(35 5)" fill="#fff"/>
      <path id="Shape" d="M46,.827v.752a.827.827,0,0,0,1.654,0V.827A.827.827,0,0,0,46,.827Z" transform="translate(-7.948 0)" fill="#fff"/>
      <path id="Shape-2" data-name="Shape" d="M47.654,20.67v-.752a.827.827,0,0,0-1.654,0v.752a.827.827,0,0,0,1.654,0Z" transform="translate(-7.948 -3.299)" fill="#fff"/>
      <path id="Shape-3" data-name="Shape" d="M56.67,10h-.752a.827.827,0,1,0,0,1.654h.752a.827.827,0,1,0,0-1.654Z" transform="translate(-9.519 -1.728)" fill="#fff"/>
      <path id="Shape-4" data-name="Shape" d="M36.827,11.654h.752a.827.827,0,1,0,0-1.654h-.752a.827.827,0,0,0,0,1.654Z" transform="translate(-6.221 -1.728)" fill="#fff"/>
      <path id="Shape-5" data-name="Shape" d="M54.37,3.171a.827.827,0,0,0-1.17,0l-.531.531a.827.827,0,1,0,1.17,1.17l.531-.531a.827.827,0,0,0,0-1.17Z" transform="translate(-9.057 -0.506)" fill="#fff"/>
      <path id="Shape-6" data-name="Shape" d="M39.7,16.673l-.531.531a.827.827,0,1,0,1.17,1.17l.531-.531a.827.827,0,0,0-1.17-1.17Z" transform="translate(-6.725 -2.841)" fill="#fff"/>
      <path id="Shape-7" data-name="Shape" d="M53.843,16.673a.827.827,0,0,0-1.17,1.17l.531.531a.827.827,0,0,0,1.17-1.17Z" transform="translate(-9.061 -2.841)" fill="#fff"/>
      <path id="Shape-8" data-name="Shape" d="M40.874,3.7l-.531-.531a.827.827,0,0,0-1.17,1.17l.531.531a.827.827,0,0,0,1.17-1.17Z" transform="translate(-6.729 -0.508)" fill="#fff"/>
      <path id="Shape-9" data-name="Shape" d="M10.1,28.867a.827.827,0,0,0,.827-.827v-4.6a3.275,3.275,0,0,1-1.654.46v1.654a.827.827,0,1,1-1.654,0V23.9H4.309v1.654a.827.827,0,1,1-1.654,0V23.9A3.275,3.275,0,0,1,1,23.444v4.6a.827.827,0,0,0,.827.827Z" transform="translate(-0.173 -4.051)" fill="#fff"/>
      <path id="Shape-10" data-name="Shape" d="M9.892,2A3.709,3.709,0,0,0,6.809,7.79H11.82A2.47,2.47,0,0,1,12.812,8a3.7,3.7,0,0,0-2.92-6Z" transform="translate(-1.066 -0.346)" fill="#fff"/>
      <path id="Shape-11" data-name="Shape" d="M8.963,54H4v2.482h6.618v-.827A1.654,1.654,0,0,0,8.963,54Z" transform="translate(-0.691 -9.331)" fill="#fff"/>
      <path id="Shape-12" data-name="Shape" d="M27.711,19.88h-3.35A1.659,1.659,0,0,1,23.2,19.4l-.092-.092L21.54,21.258l.378.378a2.5,2.5,0,0,0,1.756.725h4.037Z" transform="translate(-3.722 -3.336)" fill="#fff"/>
      <path id="Shape-13" data-name="Shape" d="M23.618,49.482v-.827A1.654,1.654,0,0,0,21.963,47H17v2.482Z" transform="translate(-2.937 -8.121)" fill="#fff"/>
      <path id="Shape-14" data-name="Shape" d="M11.581,14.309V11.827A.827.827,0,0,0,10.754,11H.827A.827.827,0,0,0,0,11.827v2.482Z" transform="translate(0 -1.901)" fill="#fff"/>
      <path id="Shape-15" data-name="Shape" d="M33.475,21.373A1.241,1.241,0,0,0,32.241,20H31v2.482h1.123a1.335,1.335,0,0,0,1.352-1.108Z" transform="translate(-5.357 -3.456)" fill="#fff"/>
      <path id="Shape-16" data-name="Shape" d="M31,24.99V44.843a.793.793,0,0,0,.237.573.808.808,0,0,0,.59.254.827.827,0,0,0,.827-.827v-19.9a3.029,3.029,0,0,1-.529.049Z" transform="translate(-5.357 -4.31)" fill="#fff"/>
      <path id="Shape-17" data-name="Shape" d="M11.212,31.749c-.449.11-.041.078-7.212.078V48.371H8.189l.774-11.635a1.643,1.643,0,0,1,1.654-1.6h1.654a1.654,1.654,0,0,1,1.654,1.595l.73,5.85H18.89V35.136A4.141,4.141,0,0,0,14.754,31H12.466c-.013.016-.194.178-.21.192A2.465,2.465,0,0,1,11.212,31.749Z" transform="translate(-0.691 -5.357)" fill="#fff"/>
      <path id="Shape-18" data-name="Shape" d="M1,19.482a1.654,1.654,0,0,0,1.654,1.654H9.272a1.654,1.654,0,0,0,1.654-1.654V17H1Z" transform="translate(-0.173 -2.937)" fill="#fff"/>
      <path id="Shape-19" data-name="Shape" d="M43.693,28.448l-2.111,3.693h5.657l-2.11-3.693a.827.827,0,0,0-1.436,0Z" transform="translate(-7.185 -4.844)" fill="#fff"/>
      <path id="Shape-20" data-name="Shape" d="M15,26.237h1.654V18.412a.827.827,0,0,1,1.413-.584l1.166,1.166L20.8,17.041l-3.316-3.314a2.5,2.5,0,0,0-1.654-.716v1.644A1.649,1.649,0,0,1,15,16.081Z" transform="translate(-2.592 -2.248)" fill="#fff"/>
      <path id="Shape-21" data-name="Shape" d="M39.467,35l-4.5,7.876v3.705a2.453,2.453,0,0,1-.152.827h2.1a2.472,2.472,0,0,1,1.437.458l4.934,3.526a.81.81,0,0,0,.478.152h8.57V44.319L47.016,35Z" transform="translate(-6.016 -6.048)" fill="#fff"/>
      <path id="Shape-22" data-name="Shape" d="M14.319,47.926V44.669L13.5,38.1a.854.854,0,0,1-.007-.1H11.837l-.779,11.713a3.3,3.3,0,0,1,2.381,2.656l2.4-2.8a1.654,1.654,0,0,1-1.519-1.641Z" transform="translate(-1.911 -6.566)" fill="#fff"/>
      <path id="Shape-23" data-name="Shape" d="M38.788,55.678l-4.934-3.526A.81.81,0,0,0,33.378,52H18.951a.847.847,0,0,0-.631.293L14.35,56.925c-.011.014-.023.026-.036.041H48.8v-.83h-8.57a2.472,2.472,0,0,1-1.439-.458Z" transform="translate(-2.473 -8.985)" fill="#fff"/>
    </g>
  </g>
</svg>
