<svg xmlns="http://www.w3.org/2000/svg" width="48" height="47.984" viewBox="0 0 48 47.984">
  <g id="Group_71" data-name="Group 71" transform="translate(247 -1207)">
    <g id="sailing" transform="translate(-247 1207)">
      <g id="Group_70" data-name="Group 70" transform="translate(0 0)">
        <path id="Path_22" data-name="Path 22" d="M47.374,44.076a1.44,1.44,0,0,0-1.968.394,2.066,2.066,0,0,1-3.215.141l2.756-5.886a1.366,1.366,0,0,0-.084-1.35,1.418,1.418,0,0,0-1.181-.647H22.593V33.917H40.869a1.4,1.4,0,0,0,1.395-1.58l-.371-2.964c-1.207-9.657-8.862-21-19.3-23.2V1.488A1.452,1.452,0,0,0,20.846.124L9.6,2.936a1.4,1.4,0,0,0,0,2.727L19.781,8.209V9.52L5.936,31.765a1.406,1.406,0,0,0,1.192,2.151H19.781v2.812H4.223a1.418,1.418,0,0,0-1.181.647,1.367,1.367,0,0,0-.084,1.35l1.659,3.637a1.856,1.856,0,0,0-.394-.028A4.848,4.848,0,0,0,.23,44.47a1.44,1.44,0,0,0,.394,1.968,1.44,1.44,0,0,0,1.968-.394,2,2,0,0,1,3.262,0,4.744,4.744,0,0,0,3.993,2.025,4.947,4.947,0,0,0,4.086-2.025,2,2,0,0,1,3.262,0,4.7,4.7,0,0,0,3.993,2.025,4.745,4.745,0,0,0,3.993-2.025,2,2,0,0,1,3.262,0c.056.056.084.141.169.2a4.628,4.628,0,0,0,3.824,1.828,4.984,4.984,0,0,0,3.993-2.025,2,2,0,0,1,3.262,0c0,.394,1.81,2.025,3.993,2.025a4.913,4.913,0,0,0,4.086-2.025A1.44,1.44,0,0,0,47.374,44.076ZM22.593,10.712A12.661,12.661,0,0,1,25.4,18.452,22.2,22.2,0,0,1,22.593,28.66C22.593,22.911,22.593,17.025,22.593,10.712Z" transform="translate(0.001 -0.085)" fill="#fff"/>
      </g>
    </g>
  </g>
</svg>
