<svg xmlns="http://www.w3.org/2000/svg" width="48.009" height="49.074" viewBox="0 0 48.009 49.074">
  <g id="Group_68" data-name="Group 68" transform="translate(16 -801)">
    <g id="scuba-diving" transform="translate(-16 801)">
      <g id="Group_55" data-name="Group 55" transform="translate(19.387 34.326)">
        <g id="Group_54" data-name="Group 54">
          <path id="Path_17" data-name="Path 17" d="M218.374,362a7.374,7.374,0,1,0,7.374,7.374A7.383,7.383,0,0,0,218.374,362Zm1.475,8.849H216.9V367.9h2.95Z" transform="translate(-211 -362)" fill="#fff"/>
        </g>
      </g>
      <g id="Group_57" data-name="Group 57" transform="translate(9.287)">
        <g id="Group_56" data-name="Group 56">
          <path id="Path_18" data-name="Path 18" d="M142.028,0h-11.8a13.488,13.488,0,0,0-12.078,7.836A12.027,12.027,0,0,1,124.33,6.1h23.6a12.027,12.027,0,0,1,6.179,1.74A13.488,13.488,0,0,0,142.028,0Z" transform="translate(-118.151)" fill="#fff"/>
        </g>
      </g>
      <g id="Group_59" data-name="Group 59" transform="translate(6.89 8.695)">
        <g id="Group_58" data-name="Group 58">
          <path id="Path_19" data-name="Path 19" d="M122.252,92H98.867a8.849,8.849,0,1,0,0,17.7h2.923a8.677,8.677,0,0,0,7.513-4.37l1.256-2.136,1.256,2.136a8.677,8.677,0,0,0,7.513,4.37h2.923a8.849,8.849,0,1,0,0-17.7Z" transform="translate(-90 -92)" fill="#fff"/>
        </g>
      </g>
      <g id="Group_61" data-name="Group 61" transform="translate(22.093 24.893)">
        <g id="Group_60" data-name="Group 60">
          <path id="Path_20" data-name="Path 20" d="M245.367,260.794a11.632,11.632,0,0,1-6.066,3.693,7.216,7.216,0,0,0,12.132,0A11.628,11.628,0,0,1,245.367,260.794Z" transform="translate(-239.301 -260.794)" fill="#fff"/>
        </g>
      </g>
      <g id="Group_63" data-name="Group 63" transform="translate(0 25.478)">
        <g id="Group_62" data-name="Group 62">
          <path id="Path_21" data-name="Path 21" d="M18.277,285.273H16.321A10.408,10.408,0,0,1,5.9,274.95V272H0v2.95a16.307,16.307,0,0,0,16.321,16.223h1.956a9.277,9.277,0,0,1,0-5.9Z" transform="translate(0 -272)" fill="#fff"/>
        </g>
      </g>
      <g id="Group_65" data-name="Group 65" transform="translate(0 19.397)">
        <g id="Group_64" data-name="Group 64" transform="translate(0 0)">
          <rect id="Rectangle_22" data-name="Rectangle 22" width="6" height="4" transform="translate(0 -0.397)" fill="#fff"/>
        </g>
      </g>
      <g id="Group_67" data-name="Group 67">
        <g id="Group_66" data-name="Group 66">
          <rect id="Rectangle_23" data-name="Rectangle 23" width="6" height="18" fill="#fff"/>
        </g>
      </g>
    </g>
  </g>
</svg>
