<svg id="sun-umbrella" xmlns="http://www.w3.org/2000/svg" width="47.979" height="47.918" viewBox="0 0 47.979 47.918">
  <g id="Group_12" data-name="Group 12" transform="translate(0 13.262)">
    <g id="Group_11" data-name="Group 11">
      <path id="Path_4" data-name="Path 4" d="M17.115,153.83,20.588,152l-3.473-1.828,2.094-3.319-3.921.153.153-3.921-3.319,2.094-1.828-3.473-1.828,3.473-3.319-2.094.153,3.921-3.921-.153,2.094,3.319L0,152l3.473,1.828L1.379,157.15,5.3,157l-.153,3.921,3.319-2.094,1.828,3.473,1.828-3.473,3.319,2.094L15.287,157l3.921.153Zm-6.821,3.319A5.147,5.147,0,1,1,15.441,152,5.147,5.147,0,0,1,10.294,157.15Z" transform="translate(0 -141.709)" fill="#fff"/>
    </g>
  </g>
  <g id="Group_14" data-name="Group 14" transform="translate(0 42.303)">
    <g id="Group_13" data-name="Group 13">
      <path id="Path_5" data-name="Path 5" d="M43.168,453.339a5,5,0,0,1-6.379,0,7.792,7.792,0,0,0-9.613,0,5,5,0,0,1-6.379,0,7.517,7.517,0,0,0-4.806-1.659,7.517,7.517,0,0,0-4.806,1.659A4.734,4.734,0,0,1,8,454.487a4.733,4.733,0,0,1-3.189-1.148A7.516,7.516,0,0,0,0,451.68v2.807a4.734,4.734,0,0,1,3.189,1.148A7.516,7.516,0,0,0,8,457.295a7.516,7.516,0,0,0,4.806-1.659,4.734,4.734,0,0,1,3.189-1.148,4.733,4.733,0,0,1,3.189,1.148,7.791,7.791,0,0,0,9.612,0,5,5,0,0,1,6.379,0,7.792,7.792,0,0,0,9.613,0,4.735,4.735,0,0,1,3.19-1.148V451.68A7.516,7.516,0,0,0,43.168,453.339Z" transform="translate(0 -451.68)" fill="#fff"/>
    </g>
  </g>
  <g id="Group_16" data-name="Group 16" transform="translate(3.971 0)">
    <g id="Group_15" data-name="Group 15" transform="translate(0 0)">
      <path id="Path_6" data-name="Path 6" d="M84.98,10.565A15.346,15.346,0,0,0,77.554,3.11l.663-1.821L75.575.327l-.663,1.822a15.483,15.483,0,0,0-18.475,9.662l-.567,1.559,1.631.3A24.191,24.191,0,0,1,64.992,16.4l.328.185.377,0h.142a14.6,14.6,0,0,1,3.651.465l-6.55,18c-.166,0-.331-.005-.5-.005a38.683,38.683,0,0,0-20.014,5.54,12.339,12.339,0,0,1,2.447,1.412c.822.578.908.638,1.573.638s.751-.06,1.573-.638a10.581,10.581,0,0,1,12.847,0c.822.578.908.638,1.573.638s.751-.06,1.573-.638a10.582,10.582,0,0,1,12.848,0c.822.578.908.638,1.573.638s.751-.06,1.573-.638a12.342,12.342,0,0,1,2.448-1.413A38.607,38.607,0,0,0,65.878,35.19l6.254-17.183a14.6,14.6,0,0,1,3.2,2.084l.286.245.371.069a24.193,24.193,0,0,1,7.491,2.727l1.445.816.568-1.559A15.363,15.363,0,0,0,84.98,10.565Z" transform="translate(-42.429 -0.327)" fill="#fff"/>
    </g>
  </g>
</svg>
